<?xml version="1.0" encoding="UTF-8"?>
<svg xmlns="http://www.w3.org/2000/svg" xmlns:xlink="http://www.w3.org/1999/xlink" width="95px" height="24px" viewBox="0 0 95 24" version="1.1">
<g id="surface1">
<path style=" stroke:none;fill-rule:nonzero;fill:rgb(99.607843%,99.607843%,99.607843%);fill-opacity:1;" d="M 0 0 C 31.351562 0 62.699219 0 95 0 C 95 7.921875 95 15.839844 95 24 C 63.648438 24 32.300781 24 0 24 C 0 16.078125 0 8.160156 0 0 Z M 0 0 "/>
<path style=" stroke:none;fill-rule:nonzero;fill:rgb(1.176471%,1.176471%,1.176471%);fill-opacity:1;" d="M 11.226562 4.699219 C 11.257812 4.707031 11.285156 4.714844 11.316406 4.722656 C 12.34375 5.023438 13.289062 5.59375 14.101562 6.277344 C 14.085938 6.308594 14.070312 6.339844 14.054688 6.371094 C 14.023438 6.355469 13.996094 6.339844 13.960938 6.324219 C 12.8125 5.757812 11.632812 5.207031 10.328125 5.195312 C 10.285156 5.195312 10.238281 5.191406 10.191406 5.191406 C 9.808594 5.1875 9.484375 5.261719 9.183594 5.511719 C 9.027344 5.707031 8.988281 5.835938 8.992188 6.089844 C 8.992188 6.136719 8.992188 6.183594 8.992188 6.234375 C 9 6.363281 9.015625 6.480469 9.046875 6.605469 C 9.070312 6.59375 9.09375 6.585938 9.121094 6.574219 C 10.4375 6.027344 11.878906 5.621094 13.269531 6.148438 C 13.515625 6.261719 13.691406 6.402344 13.871094 6.605469 C 14.015625 6.539062 14.054688 6.511719 14.148438 6.371094 C 14.179688 6.371094 14.210938 6.371094 14.242188 6.371094 C 14.25 6.34375 14.261719 6.316406 14.273438 6.289062 C 14.484375 5.925781 15.007812 5.6875 15.398438 5.582031 C 15.882812 5.511719 16.292969 5.621094 16.6875 5.90625 C 17.484375 6.578125 17.800781 7.691406 17.90625 8.699219 C 17.917969 8.949219 17.917969 9.199219 17.917969 9.449219 C 17.917969 9.5625 17.917969 9.675781 17.917969 9.789062 C 17.917969 10.816406 17.917969 10.816406 17.71875 11.117188 C 17.714844 11.082031 17.710938 11.046875 17.710938 11.011719 C 17.542969 8.621094 17.542969 8.621094 16.34375 6.628906 C 16.171875 6.488281 16.03125 6.429688 15.804688 6.398438 C 15.519531 6.433594 15.296875 6.554688 15.109375 6.777344 C 15.082031 6.8125 15.054688 6.847656 15.03125 6.882812 C 15.058594 6.90625 15.085938 6.925781 15.113281 6.949219 C 15.40625 7.179688 15.6875 7.421875 15.957031 7.675781 C 15.992188 7.707031 16.027344 7.738281 16.0625 7.773438 C 16.71875 8.40625 17.441406 9.328125 17.496094 10.269531 C 17.496094 10.585938 17.492188 10.875 17.347656 11.164062 C 17.394531 11.15625 17.445312 11.152344 17.492188 11.148438 C 18 11.148438 18.570312 11.429688 18.9375 11.769531 C 19.285156 12.136719 19.417969 12.464844 19.414062 12.96875 C 19.375 13.824219 18.761719 14.570312 18.164062 15.128906 C 17.921875 15.347656 17.671875 15.546875 17.394531 15.722656 C 17.371094 15.738281 17.34375 15.753906 17.316406 15.769531 C 16.160156 16.496094 16.160156 16.496094 15.585938 16.652344 C 15.539062 16.636719 15.492188 16.621094 15.445312 16.605469 C 15.492188 16.574219 15.539062 16.539062 15.589844 16.507812 C 16.734375 15.726562 17.933594 14.894531 18.507812 13.582031 C 18.523438 13.542969 18.542969 13.507812 18.558594 13.472656 C 18.65625 13.183594 18.648438 12.851562 18.527344 12.578125 C 18.289062 12.335938 18.039062 12.234375 17.71875 12.140625 C 17.71875 12.167969 17.714844 12.195312 17.714844 12.226562 C 17.613281 13.574219 17.148438 15.0625 16.105469 15.972656 C 15.863281 16.160156 15.601562 16.25 15.308594 16.324219 C 15.308594 16.480469 15.347656 16.574219 15.398438 16.722656 C 15.554688 17.214844 15.601562 17.847656 15.367188 18.324219 C 15.347656 18.355469 15.328125 18.386719 15.308594 18.417969 C 15.289062 18.453125 15.269531 18.484375 15.246094 18.519531 C 14.984375 18.910156 14.582031 19.125 14.132812 19.234375 C 12.679688 19.476562 11.171875 18.71875 10.019531 17.90625 C 9.84375 17.773438 9.671875 17.636719 9.507812 17.488281 C 9.539062 17.472656 9.570312 17.457031 9.601562 17.441406 C 9.691406 17.476562 9.691406 17.476562 9.804688 17.535156 C 9.84375 17.554688 9.886719 17.578125 9.929688 17.597656 C 9.976562 17.621094 10.023438 17.644531 10.070312 17.667969 C 11.257812 18.253906 12.742188 18.871094 14.085938 18.464844 C 14.304688 18.375 14.421875 18.257812 14.558594 18.0625 C 14.660156 17.761719 14.621094 17.46875 14.566406 17.164062 C 14.503906 17.1875 14.503906 17.1875 14.4375 17.214844 C 14.28125 17.28125 14.125 17.34375 13.964844 17.402344 C 13.878906 17.4375 13.792969 17.472656 13.710938 17.503906 C 12.648438 17.894531 11.347656 18.074219 10.285156 17.609375 C 10.054688 17.488281 9.863281 17.363281 9.695312 17.164062 C 9.539062 17.214844 9.511719 17.253906 9.410156 17.378906 C 9.011719 17.847656 8.53125 18.125 7.921875 18.199219 C 7.476562 18.222656 7.097656 18.011719 6.773438 17.722656 C 6.039062 17.035156 5.742188 15.910156 5.703125 14.929688 C 5.695312 14.675781 5.691406 14.425781 5.691406 14.171875 C 5.691406 14.117188 5.691406 14.117188 5.691406 14.0625 C 5.6875 13.585938 5.722656 13.125 5.796875 12.652344 C 5.828125 12.652344 5.859375 12.652344 5.890625 12.652344 C 5.894531 12.691406 5.898438 12.734375 5.902344 12.773438 C 6.046875 15.191406 6.046875 15.191406 7.269531 17.183594 C 7.488281 17.335938 7.671875 17.371094 7.933594 17.347656 C 8.226562 17.253906 8.402344 17.082031 8.582031 16.835938 C 8.542969 16.820312 8.542969 16.820312 8.5 16.800781 C 7.914062 16.488281 7.398438 15.917969 7.003906 15.394531 C 6.984375 15.371094 6.964844 15.34375 6.945312 15.320312 C 6.664062 14.945312 6.433594 14.578125 6.261719 14.140625 C 6.246094 14.101562 6.230469 14.066406 6.214844 14.027344 C 6.121094 13.773438 6.109375 13.53125 6.109375 13.265625 C 6.109375 13.234375 6.109375 13.199219 6.109375 13.164062 C 6.109375 12.960938 6.140625 12.792969 6.214844 12.605469 C 6.1875 12.605469 6.15625 12.601562 6.125 12.601562 C 5.464844 12.566406 4.953125 12.296875 4.503906 11.8125 C 4.238281 11.496094 4.15625 11.144531 4.160156 10.734375 C 4.253906 9.804688 4.976562 9.027344 5.652344 8.445312 C 6.386719 7.851562 7.253906 7.339844 8.164062 7.070312 C 8.164062 7.101562 8.164062 7.132812 8.164062 7.164062 C 8.078125 7.226562 8.078125 7.226562 7.953125 7.300781 C 7.421875 7.628906 6.921875 8.011719 6.449219 8.417969 C 6.402344 8.457031 6.355469 8.496094 6.3125 8.535156 C 5.707031 9.0625 5.070312 9.792969 4.949219 10.617188 C 4.941406 10.878906 4.96875 11.101562 5.148438 11.300781 C 5.378906 11.449219 5.621094 11.570312 5.890625 11.628906 C 5.890625 11.578125 5.886719 11.527344 5.886719 11.476562 C 5.886719 10.3125 6.421875 8.957031 7.191406 8.09375 C 7.214844 8.0625 7.238281 8.035156 7.261719 8.003906 C 7.5 7.730469 7.832031 7.574219 8.164062 7.441406 C 8.226562 7.441406 8.285156 7.441406 8.351562 7.441406 C 8.328125 7.402344 8.308594 7.359375 8.289062 7.320312 C 8.035156 6.722656 7.984375 6.09375 8.210938 5.488281 C 8.386719 5.097656 8.710938 4.792969 9.105469 4.628906 C 9.792969 4.382812 10.542969 4.488281 11.226562 4.699219 Z M 11.226562 4.699219 "/>
<path style=" stroke:none;fill-rule:nonzero;fill:rgb(1.568628%,1.568628%,1.568628%);fill-opacity:1;" d="M 82.9375 9.488281 C 83.078125 9.535156 83.078125 9.535156 83.136719 9.632812 C 83.15625 9.675781 83.175781 9.71875 83.199219 9.765625 C 83.222656 9.816406 83.242188 9.867188 83.265625 9.917969 C 83.304688 10 83.304688 10 83.34375 10.085938 C 83.367188 10.144531 83.394531 10.203125 83.421875 10.261719 C 83.648438 10.753906 83.867188 11.25 84.085938 11.746094 C 84.351562 12.351562 84.625 12.953125 84.902344 13.554688 C 85.164062 14.117188 85.417969 14.679688 85.667969 15.246094 C 85.773438 15.476562 85.875 15.707031 85.984375 15.933594 C 86.007812 15.988281 86.007812 15.988281 86.035156 16.042969 C 86.148438 16.230469 86.316406 16.367188 86.511719 16.464844 C 86.582031 16.476562 86.652344 16.484375 86.726562 16.492188 C 86.765625 16.496094 86.800781 16.5 86.839844 16.503906 C 86.871094 16.507812 86.898438 16.507812 86.929688 16.511719 C 86.929688 16.558594 86.929688 16.605469 86.929688 16.652344 C 86.132812 16.652344 85.335938 16.652344 84.515625 16.652344 C 84.515625 16.605469 84.515625 16.558594 84.515625 16.511719 C 84.566406 16.507812 84.617188 16.507812 84.667969 16.503906 C 84.847656 16.480469 84.847656 16.480469 84.957031 16.347656 C 85.085938 16.050781 85 15.796875 84.882812 15.503906 C 84.816406 15.34375 84.746094 15.179688 84.675781 15.019531 C 84.578125 14.792969 84.480469 14.5625 84.378906 14.324219 C 82.90625 14.300781 82.90625 14.300781 81.410156 14.277344 C 81.394531 14.355469 81.378906 14.433594 81.363281 14.511719 C 81.324219 14.609375 81.28125 14.707031 81.234375 14.804688 C 81.210938 14.859375 81.183594 14.917969 81.160156 14.972656 C 81.121094 15.0625 81.082031 15.152344 81.039062 15.238281 C 80.824219 15.714844 80.824219 15.714844 80.804688 16.234375 C 80.84375 16.332031 80.84375 16.332031 80.898438 16.417969 C 81 16.460938 81 16.460938 81.113281 16.476562 C 81.167969 16.488281 81.167969 16.488281 81.226562 16.496094 C 81.257812 16.503906 81.285156 16.507812 81.316406 16.511719 C 81.316406 16.558594 81.316406 16.605469 81.316406 16.652344 C 80.582031 16.652344 79.847656 16.652344 79.089844 16.652344 C 79.089844 16.605469 79.089844 16.558594 79.089844 16.511719 C 79.132812 16.507812 79.132812 16.507812 79.179688 16.503906 C 79.238281 16.496094 79.238281 16.496094 79.296875 16.484375 C 79.335938 16.480469 79.375 16.476562 79.414062 16.472656 C 79.902344 16.285156 80.078125 15.828125 80.28125 15.386719 C 80.3125 15.316406 80.34375 15.25 80.378906 15.179688 C 80.460938 15.003906 80.539062 14.832031 80.621094 14.65625 C 80.6875 14.507812 80.757812 14.363281 80.824219 14.214844 C 80.925781 14.003906 81.023438 13.789062 81.121094 13.578125 C 81.246094 13.304688 81.375 13.03125 81.503906 12.753906 C 81.625 12.492188 81.75 12.226562 81.871094 11.960938 C 81.921875 11.855469 81.972656 11.746094 82.019531 11.640625 C 82.109375 11.449219 82.199219 11.257812 82.285156 11.066406 C 82.320312 10.992188 82.355469 10.917969 82.390625 10.84375 C 82.597656 10.398438 82.785156 9.953125 82.9375 9.488281 Z M 82.9375 9.488281 "/>
<path style=" stroke:none;fill-rule:nonzero;fill:rgb(1.568628%,1.568628%,1.568628%);fill-opacity:1;" d="M 34.371094 9.488281 C 34.511719 9.535156 34.511719 9.535156 34.570312 9.632812 C 34.589844 9.675781 34.609375 9.71875 34.632812 9.765625 C 34.652344 9.816406 34.675781 9.867188 34.699219 9.917969 C 34.738281 10 34.738281 10 34.777344 10.085938 C 34.800781 10.144531 34.828125 10.203125 34.855469 10.261719 C 35.082031 10.753906 35.296875 11.25 35.519531 11.746094 C 35.785156 12.351562 36.058594 12.953125 36.335938 13.554688 C 36.597656 14.117188 36.851562 14.679688 37.101562 15.246094 C 37.203125 15.476562 37.308594 15.707031 37.417969 15.933594 C 37.441406 15.988281 37.441406 15.988281 37.46875 16.042969 C 37.582031 16.230469 37.75 16.367188 37.945312 16.464844 C 38.015625 16.476562 38.085938 16.484375 38.160156 16.492188 C 38.195312 16.496094 38.234375 16.5 38.273438 16.503906 C 38.304688 16.507812 38.332031 16.507812 38.363281 16.511719 C 38.363281 16.558594 38.363281 16.605469 38.363281 16.652344 C 37.566406 16.652344 36.769531 16.652344 35.949219 16.652344 C 35.949219 16.605469 35.949219 16.558594 35.949219 16.511719 C 36 16.507812 36.050781 16.507812 36.101562 16.503906 C 36.28125 16.480469 36.28125 16.480469 36.390625 16.347656 C 36.519531 16.050781 36.433594 15.796875 36.316406 15.503906 C 36.25 15.34375 36.179688 15.179688 36.109375 15.019531 C 36.011719 14.792969 35.910156 14.5625 35.8125 14.324219 C 34.339844 14.300781 34.339844 14.300781 32.84375 14.277344 C 32.828125 14.355469 32.8125 14.433594 32.796875 14.511719 C 32.753906 14.609375 32.714844 14.707031 32.667969 14.804688 C 32.644531 14.859375 32.617188 14.917969 32.59375 14.972656 C 32.554688 15.0625 32.515625 15.152344 32.472656 15.238281 C 32.257812 15.714844 32.257812 15.714844 32.238281 16.234375 C 32.277344 16.332031 32.277344 16.332031 32.332031 16.417969 C 32.433594 16.460938 32.433594 16.460938 32.546875 16.476562 C 32.601562 16.488281 32.601562 16.488281 32.660156 16.496094 C 32.691406 16.503906 32.71875 16.507812 32.75 16.511719 C 32.75 16.558594 32.75 16.605469 32.75 16.652344 C 32.015625 16.652344 31.28125 16.652344 30.523438 16.652344 C 30.523438 16.605469 30.523438 16.558594 30.523438 16.511719 C 30.566406 16.507812 30.566406 16.507812 30.609375 16.503906 C 30.671875 16.496094 30.671875 16.496094 30.730469 16.484375 C 30.769531 16.480469 30.808594 16.476562 30.847656 16.472656 C 31.335938 16.285156 31.511719 15.828125 31.714844 15.386719 C 31.746094 15.316406 31.777344 15.25 31.8125 15.179688 C 31.894531 15.003906 31.972656 14.832031 32.054688 14.65625 C 32.121094 14.507812 32.191406 14.363281 32.257812 14.214844 C 32.359375 14.003906 32.457031 13.789062 32.554688 13.578125 C 32.679688 13.304688 32.808594 13.03125 32.9375 12.753906 C 33.058594 12.492188 33.183594 12.226562 33.304688 11.960938 C 33.355469 11.855469 33.40625 11.746094 33.453125 11.640625 C 33.542969 11.449219 33.632812 11.257812 33.71875 11.066406 C 33.753906 10.992188 33.789062 10.917969 33.824219 10.84375 C 34.03125 10.398438 34.21875 9.953125 34.371094 9.488281 Z M 34.371094 9.488281 "/>
<path style=" stroke:none;fill-rule:nonzero;fill:rgb(1.568628%,1.568628%,1.568628%);fill-opacity:1;" d="M 39.429688 9.488281 C 39.585938 9.523438 39.65625 9.5625 39.765625 9.679688 C 39.878906 9.800781 39.992188 9.910156 40.117188 10.015625 C 40.257812 10.136719 40.390625 10.265625 40.519531 10.394531 C 40.644531 10.523438 40.773438 10.648438 40.910156 10.765625 C 41.101562 10.925781 41.273438 11.105469 41.449219 11.285156 C 41.574219 11.40625 41.707031 11.523438 41.839844 11.636719 C 41.984375 11.765625 42.113281 11.902344 42.25 12.039062 C 42.339844 12.128906 42.4375 12.214844 42.535156 12.300781 C 42.710938 12.453125 42.875 12.617188 43.035156 12.78125 C 43.128906 12.875 43.226562 12.960938 43.324219 13.046875 C 43.464844 13.164062 43.59375 13.289062 43.71875 13.417969 C 43.847656 13.546875 43.972656 13.671875 44.109375 13.789062 C 44.300781 13.949219 44.472656 14.128906 44.648438 14.304688 C 44.777344 14.429688 44.910156 14.546875 45.042969 14.664062 C 45.179688 14.785156 45.304688 14.914062 45.429688 15.042969 C 45.5 15.121094 45.5 15.121094 45.597656 15.164062 C 45.597656 14.527344 45.59375 13.886719 45.59375 13.25 C 45.589844 12.957031 45.589844 12.660156 45.589844 12.363281 C 45.589844 12.078125 45.585938 11.792969 45.585938 11.507812 C 45.585938 11.398438 45.585938 11.289062 45.585938 11.179688 C 45.585938 11.027344 45.582031 10.875 45.582031 10.722656 C 45.582031 10.675781 45.582031 10.632812 45.582031 10.585938 C 45.578125 10.285156 45.519531 10.132812 45.320312 9.90625 C 45.144531 9.804688 44.960938 9.789062 44.761719 9.765625 C 44.761719 9.738281 44.761719 9.707031 44.761719 9.675781 C 45.484375 9.675781 46.203125 9.675781 46.945312 9.675781 C 46.945312 9.707031 46.945312 9.734375 46.945312 9.765625 C 46.902344 9.769531 46.902344 9.769531 46.863281 9.769531 C 46.609375 9.789062 46.449219 9.832031 46.246094 10 C 46.144531 10.15625 46.144531 10.203125 46.144531 10.382812 C 46.144531 10.429688 46.144531 10.480469 46.144531 10.535156 C 46.144531 10.589844 46.144531 10.644531 46.144531 10.699219 C 46.144531 10.785156 46.144531 10.785156 46.144531 10.875 C 46.144531 11.035156 46.144531 11.195312 46.144531 11.351562 C 46.144531 11.519531 46.144531 11.6875 46.144531 11.855469 C 46.144531 12.136719 46.144531 12.417969 46.144531 12.699219 C 46.144531 13.019531 46.144531 13.34375 46.144531 13.667969 C 46.144531 14.015625 46.144531 14.359375 46.148438 14.707031 C 46.148438 14.804688 46.148438 14.902344 46.148438 15 C 46.148438 15.1875 46.148438 15.375 46.148438 15.558594 C 46.148438 15.613281 46.148438 15.667969 46.148438 15.722656 C 46.148438 16.097656 46.171875 16.464844 46.203125 16.835938 C 46.0625 16.835938 46.0625 16.835938 45.960938 16.742188 C 45.917969 16.699219 45.875 16.652344 45.828125 16.605469 C 45.773438 16.546875 45.714844 16.488281 45.65625 16.429688 C 45.628906 16.398438 45.597656 16.367188 45.5625 16.335938 C 45.53125 16.304688 45.5 16.269531 45.46875 16.238281 C 45.4375 16.207031 45.40625 16.175781 45.371094 16.140625 C 45.1875 15.957031 45 15.78125 44.800781 15.609375 C 44.683594 15.503906 44.574219 15.394531 44.460938 15.277344 C 44.320312 15.136719 44.175781 14.996094 44.023438 14.863281 C 43.832031 14.699219 43.660156 14.523438 43.484375 14.34375 C 43.328125 14.1875 43.171875 14.042969 43.003906 13.898438 C 42.859375 13.769531 42.722656 13.628906 42.585938 13.492188 C 42.464844 13.367188 42.34375 13.25 42.210938 13.140625 C 42.035156 12.988281 41.871094 12.820312 41.703125 12.652344 C 41.582031 12.53125 41.460938 12.414062 41.332031 12.300781 C 41.152344 12.148438 40.988281 11.984375 40.824219 11.816406 C 40.671875 11.660156 40.511719 11.515625 40.34375 11.375 C 40.25 11.292969 40.164062 11.203125 40.078125 11.117188 C 40.074219 11.761719 40.070312 12.40625 40.070312 13.046875 C 40.066406 13.347656 40.066406 13.648438 40.0625 13.945312 C 40.0625 14.234375 40.0625 14.523438 40.058594 14.8125 C 40.058594 14.921875 40.058594 15.03125 40.058594 15.140625 C 40.058594 15.296875 40.058594 15.449219 40.058594 15.605469 C 40.054688 15.671875 40.054688 15.671875 40.054688 15.742188 C 40.054688 16.007812 40.082031 16.164062 40.265625 16.371094 C 40.460938 16.5 40.636719 16.535156 40.867188 16.558594 C 40.867188 16.589844 40.867188 16.621094 40.867188 16.652344 C 40.148438 16.652344 39.429688 16.652344 38.6875 16.652344 C 38.6875 16.605469 38.6875 16.558594 38.6875 16.511719 C 38.734375 16.511719 38.734375 16.511719 38.78125 16.507812 C 39.035156 16.492188 39.199219 16.476562 39.382812 16.277344 C 39.484375 16.125 39.488281 16.078125 39.488281 15.898438 C 39.488281 15.851562 39.488281 15.800781 39.488281 15.75 C 39.488281 15.695312 39.488281 15.640625 39.488281 15.582031 C 39.488281 15.527344 39.488281 15.46875 39.488281 15.410156 C 39.488281 15.25 39.488281 15.09375 39.484375 14.933594 C 39.484375 14.769531 39.484375 14.605469 39.484375 14.4375 C 39.484375 14.160156 39.484375 13.878906 39.484375 13.601562 C 39.484375 13.28125 39.484375 12.960938 39.484375 12.636719 C 39.484375 12.296875 39.484375 11.953125 39.484375 11.609375 C 39.484375 11.511719 39.484375 11.414062 39.484375 11.316406 C 39.484375 11.132812 39.480469 10.945312 39.480469 10.761719 C 39.480469 10.707031 39.480469 10.65625 39.480469 10.601562 C 39.480469 10.226562 39.460938 9.859375 39.429688 9.488281 Z M 39.429688 9.488281 "/>
<path style=" stroke:none;fill-rule:nonzero;fill:rgb(1.568628%,1.568628%,1.568628%);fill-opacity:1;" d="M 54.691406 9.675781 C 55.132812 9.671875 55.574219 9.667969 56.015625 9.664062 C 56.21875 9.664062 56.425781 9.664062 56.628906 9.660156 C 56.828125 9.660156 57.027344 9.65625 57.226562 9.65625 C 57.300781 9.65625 57.375 9.65625 57.449219 9.65625 C 58.167969 9.644531 58.925781 9.730469 59.480469 10.238281 C 59.890625 10.675781 59.992188 11.0625 59.984375 11.652344 C 59.964844 12.113281 59.773438 12.558594 59.460938 12.898438 C 59.109375 13.214844 58.6875 13.429688 58.214844 13.488281 C 58.257812 13.515625 58.296875 13.539062 58.339844 13.566406 C 58.710938 13.816406 58.976562 14.203125 59.230469 14.5625 C 59.378906 14.769531 59.546875 14.960938 59.710938 15.152344 C 59.828125 15.289062 59.941406 15.429688 60.054688 15.570312 C 60.417969 16.015625 60.773438 16.433594 61.375 16.503906 C 61.433594 16.503906 61.492188 16.507812 61.554688 16.511719 C 61.554688 16.558594 61.554688 16.605469 61.554688 16.652344 C 60.660156 16.683594 59.980469 16.597656 59.296875 15.972656 C 59.089844 15.777344 58.925781 15.5625 58.761719 15.332031 C 58.738281 15.296875 58.710938 15.257812 58.683594 15.222656 C 58.554688 15.039062 58.425781 14.855469 58.300781 14.667969 C 57.671875 13.726562 57.671875 13.726562 56.683594 13.253906 C 56.683594 13.210938 56.683594 13.164062 56.683594 13.117188 C 56.714844 13.117188 56.742188 13.113281 56.773438 13.113281 C 57.820312 13.136719 57.820312 13.136719 58.726562 12.699219 C 59.058594 12.316406 59.125 11.808594 59.113281 11.320312 C 59.078125 10.980469 58.945312 10.640625 58.679688 10.417969 C 58.136719 10.042969 57.546875 10.03125 56.90625 10.015625 C 56.84375 10.015625 56.78125 10.015625 56.71875 10.011719 C 56.566406 10.007812 56.417969 10.003906 56.265625 10 C 56.269531 10.785156 56.273438 11.566406 56.277344 12.351562 C 56.28125 12.714844 56.28125 13.078125 56.28125 13.441406 C 56.285156 13.757812 56.285156 14.078125 56.289062 14.394531 C 56.289062 14.5625 56.289062 14.730469 56.289062 14.898438 C 56.289062 15.085938 56.292969 15.273438 56.292969 15.460938 C 56.292969 15.515625 56.292969 15.570312 56.292969 15.628906 C 56.296875 15.9375 56.3125 16.167969 56.527344 16.410156 C 56.695312 16.496094 56.871094 16.5 57.054688 16.511719 C 57.070312 16.558594 57.085938 16.605469 57.101562 16.652344 C 56.304688 16.652344 55.511719 16.652344 54.691406 16.652344 C 54.691406 16.605469 54.691406 16.558594 54.691406 16.511719 C 54.730469 16.511719 54.730469 16.511719 54.769531 16.507812 C 55.023438 16.488281 55.1875 16.453125 55.386719 16.277344 C 55.46875 16.113281 55.492188 15.980469 55.492188 15.796875 C 55.492188 15.75 55.492188 15.699219 55.492188 15.648438 C 55.492188 15.570312 55.492188 15.570312 55.492188 15.488281 C 55.492188 15.429688 55.492188 15.375 55.492188 15.316406 C 55.496094 15.160156 55.496094 15.003906 55.496094 14.847656 C 55.496094 14.75 55.496094 14.65625 55.496094 14.558594 C 55.496094 14.21875 55.5 13.878906 55.5 13.539062 C 55.5 13.226562 55.5 12.910156 55.5 12.59375 C 55.503906 12.320312 55.503906 12.050781 55.503906 11.78125 C 55.503906 11.617188 55.503906 11.457031 55.507812 11.292969 C 55.507812 11.113281 55.507812 10.933594 55.507812 10.753906 C 55.507812 10.699219 55.507812 10.644531 55.507812 10.589844 C 55.507812 10.28125 55.507812 10.28125 55.367188 10.015625 C 55.15625 9.828125 54.964844 9.800781 54.691406 9.765625 C 54.691406 9.738281 54.691406 9.707031 54.691406 9.675781 Z M 54.691406 9.675781 "/>
<path style=" stroke:none;fill-rule:nonzero;fill:rgb(2.352941%,2.352941%,2.352941%);fill-opacity:1;" d="M 29.050781 8.878906 C 29.078125 8.890625 29.109375 8.90625 29.140625 8.921875 C 29.296875 9.003906 29.355469 9.050781 29.414062 9.21875 C 29.453125 9.386719 29.484375 9.550781 29.503906 9.722656 C 29.511719 9.78125 29.519531 9.84375 29.53125 9.902344 C 29.539062 9.964844 29.546875 10.027344 29.554688 10.089844 C 29.5625 10.152344 29.570312 10.21875 29.578125 10.28125 C 29.601562 10.433594 29.621094 10.589844 29.640625 10.746094 C 29.59375 10.746094 29.550781 10.746094 29.5 10.746094 C 29.492188 10.714844 29.484375 10.683594 29.472656 10.652344 C 29.222656 9.90625 28.847656 9.402344 28.144531 9.050781 C 27.386719 8.675781 26.375 8.578125 25.558594 8.84375 C 24.671875 9.175781 24.054688 9.828125 23.648438 10.671875 C 23.167969 11.859375 23.195312 13.296875 23.6875 14.46875 C 23.707031 14.515625 23.730469 14.558594 23.75 14.605469 C 23.769531 14.648438 23.789062 14.691406 23.8125 14.738281 C 23.976562 15.066406 24.1875 15.324219 24.445312 15.582031 C 24.472656 15.609375 24.5 15.640625 24.527344 15.667969 C 25.050781 16.183594 25.8125 16.429688 26.527344 16.433594 C 27.492188 16.421875 28.265625 16.183594 28.984375 15.515625 C 29.507812 14.960938 29.714844 14.222656 29.828125 13.488281 C 29.839844 13.410156 29.855469 13.332031 29.875 13.253906 C 29.902344 13.253906 29.933594 13.253906 29.964844 13.253906 C 29.96875 13.644531 29.960938 14.03125 29.941406 14.417969 C 29.941406 14.472656 29.941406 14.53125 29.9375 14.585938 C 29.914062 15.015625 29.785156 15.261719 29.5 15.582031 C 29.480469 15.609375 29.457031 15.636719 29.433594 15.664062 C 28.890625 16.292969 28.132812 16.65625 27.320312 16.789062 C 27.105469 16.800781 26.890625 16.800781 26.671875 16.800781 C 26.613281 16.800781 26.554688 16.800781 26.496094 16.800781 C 25.410156 16.804688 24.46875 16.492188 23.671875 15.734375 C 22.890625 14.949219 22.445312 13.964844 22.4375 12.851562 C 22.4375 12.785156 22.4375 12.71875 22.4375 12.65625 C 22.441406 12.558594 22.4375 12.460938 22.4375 12.363281 C 22.4375 11.230469 22.835938 10.238281 23.625 9.421875 C 25.078125 8.042969 27.332031 8.023438 29.050781 8.878906 Z M 29.050781 8.878906 "/>
<path style=" stroke:none;fill-rule:nonzero;fill:rgb(0.784314%,0.784314%,0.784314%);fill-opacity:1;" d="M 65.914062 9.675781 C 66.34375 9.667969 66.769531 9.664062 67.199219 9.664062 C 67.398438 9.660156 67.597656 9.660156 67.796875 9.65625 C 67.988281 9.65625 68.179688 9.652344 68.371094 9.652344 C 68.445312 9.652344 68.519531 9.652344 68.589844 9.648438 C 69.371094 9.636719 70.152344 9.796875 70.753906 10.328125 C 71.160156 10.75 71.269531 11.152344 71.269531 11.726562 C 71.253906 12.300781 71.050781 12.789062 70.65625 13.207031 C 70.132812 13.691406 69.527344 13.753906 68.839844 13.738281 C 68.496094 13.71875 68.199219 13.632812 67.910156 13.441406 C 67.910156 13.410156 67.910156 13.378906 67.910156 13.347656 C 67.9375 13.351562 67.964844 13.351562 67.996094 13.351562 C 68.996094 13.386719 68.996094 13.386719 69.863281 12.933594 C 70.269531 12.5 70.394531 11.984375 70.390625 11.40625 C 70.375 11.003906 70.238281 10.738281 69.957031 10.449219 C 69.441406 10.039062 68.820312 10.011719 68.191406 10.007812 C 68.117188 10.007812 68.046875 10.007812 67.972656 10.003906 C 67.796875 10.003906 67.621094 10 67.445312 10 C 67.449219 10.777344 67.453125 11.554688 67.457031 12.332031 C 67.460938 12.695312 67.460938 13.054688 67.460938 13.414062 C 67.464844 13.730469 67.464844 14.042969 67.46875 14.359375 C 67.46875 14.527344 67.46875 14.691406 67.46875 14.859375 C 67.46875 15.046875 67.472656 15.230469 67.472656 15.417969 C 67.472656 15.472656 67.472656 15.527344 67.472656 15.585938 C 67.476562 15.851562 67.484375 16.046875 67.632812 16.277344 C 67.632812 16.308594 67.632812 16.339844 67.632812 16.371094 C 67.839844 16.46875 68.058594 16.511719 68.28125 16.558594 C 68.28125 16.589844 68.28125 16.621094 68.28125 16.652344 C 67.5 16.652344 66.71875 16.652344 65.914062 16.652344 C 65.914062 16.621094 65.914062 16.589844 65.914062 16.558594 C 66 16.539062 66 16.539062 66.085938 16.519531 C 66.339844 16.457031 66.519531 16.367188 66.664062 16.140625 C 66.75 15.933594 66.730469 15.707031 66.726562 15.492188 C 66.726562 15.433594 66.730469 15.378906 66.730469 15.320312 C 66.730469 15.167969 66.730469 15.015625 66.730469 14.863281 C 66.730469 14.703125 66.730469 14.542969 66.730469 14.382812 C 66.730469 14.117188 66.730469 13.847656 66.726562 13.578125 C 66.726562 13.269531 66.726562 12.960938 66.730469 12.648438 C 66.730469 12.382812 66.730469 12.117188 66.730469 11.851562 C 66.730469 11.691406 66.730469 11.53125 66.730469 11.375 C 66.730469 11.195312 66.730469 11.019531 66.726562 10.839844 C 66.726562 10.789062 66.730469 10.738281 66.730469 10.683594 C 66.726562 10.382812 66.699219 10.195312 66.519531 9.953125 C 66.324219 9.824219 66.144531 9.789062 65.914062 9.765625 C 65.914062 9.738281 65.914062 9.707031 65.914062 9.675781 Z M 65.914062 9.675781 "/>
<path style=" stroke:none;fill-rule:nonzero;fill:rgb(98.823529%,98.823529%,98.823529%);fill-opacity:1;" d="M 8.628906 8.1875 C 8.945312 8.363281 9.117188 8.640625 9.324219 8.929688 C 9.351562 8.960938 9.375 8.996094 9.402344 9.027344 C 9.753906 9.480469 9.867188 10.183594 9.878906 10.746094 C 8.714844 11.394531 7.445312 11.699219 6.125 11.675781 C 6.148438 11.386719 6.210938 11.140625 6.308594 10.871094 C 6.328125 10.808594 6.328125 10.808594 6.351562 10.746094 C 6.699219 9.800781 7.175781 8.71875 8.117188 8.234375 C 8.289062 8.175781 8.453125 8.152344 8.628906 8.1875 Z M 8.628906 8.1875 "/>
<path style=" stroke:none;fill-rule:nonzero;fill:rgb(98.823529%,98.823529%,98.823529%);fill-opacity:1;" d="M 17.488281 12.09375 C 17.269531 13.082031 16.894531 14.03125 16.28125 14.835938 C 16.257812 14.871094 16.234375 14.902344 16.210938 14.933594 C 15.980469 15.226562 15.660156 15.460938 15.308594 15.582031 C 15.0625 15.605469 14.914062 15.570312 14.703125 15.441406 C 14.613281 15.34375 14.539062 15.234375 14.46875 15.121094 C 14.429688 15.066406 14.390625 15.007812 14.351562 14.949219 C 14.332031 14.921875 14.3125 14.894531 14.292969 14.867188 C 14.238281 14.78125 14.238281 14.78125 14.140625 14.675781 C 14.035156 14.527344 13.984375 14.378906 13.933594 14.207031 C 13.917969 14.15625 13.917969 14.15625 13.902344 14.105469 C 13.792969 13.734375 13.722656 13.367188 13.730469 12.976562 C 14.996094 12.425781 16.101562 12.054688 17.488281 12.09375 Z M 17.488281 12.09375 "/>
<path style=" stroke:none;fill-rule:nonzero;fill:rgb(98.823529%,98.823529%,98.823529%);fill-opacity:1;" d="M 13.164062 6.949219 C 13.40625 7.234375 13.40625 7.234375 13.40625 7.390625 C 13.378906 7.660156 13.3125 7.886719 13.203125 8.128906 C 13.1875 8.167969 13.171875 8.203125 13.152344 8.242188 C 12.984375 8.597656 12.765625 8.847656 12.476562 9.117188 C 12.4375 9.152344 12.398438 9.191406 12.359375 9.226562 C 12.261719 9.316406 12.164062 9.402344 12.0625 9.488281 C 12.03125 9.515625 12 9.542969 11.96875 9.570312 C 11.875 9.628906 11.875 9.628906 11.785156 9.625 C 10.710938 9.144531 9.609375 7.886719 9.136719 6.835938 C 10.21875 6.355469 12.203125 6.117188 13.164062 6.949219 Z M 13.164062 6.949219 "/>
<path style=" stroke:none;fill-rule:nonzero;fill:rgb(99.215686%,99.215686%,99.215686%);fill-opacity:1;" d="M 11.824219 14.144531 C 12.84375 14.558594 13.847656 15.785156 14.375 16.710938 C 14.425781 16.835938 14.425781 16.835938 14.378906 16.976562 C 14.296875 17.011719 14.296875 17.011719 14.191406 17.039062 C 14.152344 17.050781 14.113281 17.058594 14.070312 17.070312 C 14.03125 17.078125 13.988281 17.089844 13.945312 17.097656 C 13.90625 17.109375 13.867188 17.117188 13.824219 17.128906 C 13.308594 17.253906 12.800781 17.265625 12.273438 17.265625 C 12.214844 17.265625 12.15625 17.265625 12.097656 17.265625 C 11.5 17.265625 10.867188 17.230469 10.398438 16.808594 C 10.242188 16.621094 10.191406 16.488281 10.195312 16.246094 C 10.214844 16.054688 10.285156 15.886719 10.363281 15.710938 C 10.378906 15.671875 10.394531 15.632812 10.410156 15.59375 C 10.636719 15.09375 10.984375 14.707031 11.410156 14.371094 C 11.453125 14.335938 11.453125 14.335938 11.5 14.300781 C 11.707031 14.136719 11.707031 14.136719 11.824219 14.144531 Z M 11.824219 14.144531 "/>
<path style=" stroke:none;fill-rule:nonzero;fill:rgb(98.823529%,98.823529%,98.823529%);fill-opacity:1;" d="M 14.796875 7.070312 C 15.0625 7.179688 15.21875 7.414062 15.398438 7.628906 C 15.457031 7.691406 15.457031 7.691406 15.515625 7.757812 C 16.121094 8.464844 16.761719 9.335938 16.761719 10.304688 C 16.765625 10.355469 16.765625 10.355469 16.765625 10.40625 C 16.769531 10.691406 16.679688 10.855469 16.480469 11.058594 C 16.328125 11.140625 16.175781 11.15625 16.007812 11.171875 C 15.957031 11.175781 15.957031 11.175781 15.902344 11.183594 C 15.796875 11.191406 15.691406 11.199219 15.585938 11.210938 C 15.53125 11.214844 15.476562 11.21875 15.417969 11.222656 C 14.824219 11.246094 14.257812 11.050781 13.730469 10.789062 C 13.75 10.285156 13.8125 9.796875 13.914062 9.300781 C 13.925781 9.246094 13.925781 9.246094 13.9375 9.191406 C 14.101562 8.429688 14.367188 7.722656 14.796875 7.070312 Z M 14.796875 7.070312 "/>
<path style=" stroke:none;fill-rule:nonzero;fill:rgb(99.215686%,99.215686%,99.215686%);fill-opacity:1;" d="M 9.789062 12.929688 C 9.835938 12.976562 9.835938 12.976562 9.839844 13.15625 C 9.824219 14.375 9.457031 15.621094 8.8125 16.652344 C 8.675781 16.652344 8.675781 16.652344 8.59375 16.585938 C 7.789062 15.757812 6.839844 14.609375 6.796875 13.394531 C 6.808594 13.128906 6.886719 12.964844 7.0625 12.761719 C 7.726562 12.183594 9.0625 12.648438 9.789062 12.929688 Z M 9.789062 12.929688 "/>
<path style=" stroke:none;fill-rule:nonzero;fill:rgb(2.745098%,2.745098%,2.745098%);fill-opacity:1;" d="M 74.625 9.480469 C 74.667969 9.480469 74.710938 9.480469 74.753906 9.480469 C 74.953125 9.480469 75.136719 9.492188 75.332031 9.535156 C 75.445312 9.546875 75.558594 9.554688 75.671875 9.5625 C 75.773438 9.566406 75.875 9.574219 75.980469 9.582031 C 75.980469 10.011719 75.980469 10.441406 75.980469 10.882812 C 75.933594 10.882812 75.890625 10.882812 75.84375 10.882812 C 75.835938 10.855469 75.832031 10.828125 75.828125 10.800781 C 75.769531 10.492188 75.6875 10.285156 75.433594 10.082031 C 74.996094 9.839844 74.410156 9.832031 73.929688 9.941406 C 73.632812 10.050781 73.390625 10.214844 73.226562 10.492188 C 73.105469 10.765625 73.105469 11.066406 73.175781 11.359375 C 73.382812 11.859375 73.980469 12.199219 74.402344 12.511719 C 74.605469 12.660156 74.804688 12.816406 75.003906 12.976562 C 75.136719 13.082031 75.269531 13.1875 75.40625 13.289062 C 75.433594 13.3125 75.460938 13.332031 75.488281 13.351562 C 75.5625 13.410156 75.636719 13.464844 75.710938 13.519531 C 75.839844 13.628906 75.957031 13.738281 76.074219 13.859375 C 76.105469 13.894531 76.136719 13.925781 76.167969 13.960938 C 76.417969 14.328125 76.5 14.722656 76.445312 15.164062 C 76.363281 15.574219 76.222656 15.882812 75.933594 16.1875 C 75.90625 16.214844 75.878906 16.246094 75.851562 16.277344 C 75.328125 16.785156 74.6875 16.808594 74.003906 16.800781 C 73.445312 16.789062 72.78125 16.683594 72.363281 16.277344 C 72.1875 15.921875 72.308594 15.277344 72.425781 14.917969 C 72.441406 14.878906 72.441406 14.878906 72.457031 14.835938 C 72.503906 14.835938 72.546875 14.835938 72.59375 14.835938 C 72.597656 14.878906 72.601562 14.917969 72.605469 14.960938 C 72.65625 15.433594 72.761719 15.851562 73.144531 16.164062 C 73.621094 16.472656 74.167969 16.488281 74.714844 16.386719 C 75.125 16.273438 75.4375 16.117188 75.65625 15.742188 C 75.796875 15.421875 75.808594 15.089844 75.710938 14.753906 C 75.488281 14.25 74.988281 13.960938 74.5625 13.640625 C 74.210938 13.378906 73.867188 13.109375 73.523438 12.835938 C 73.496094 12.816406 73.472656 12.796875 73.445312 12.777344 C 72.621094 12.128906 72.621094 12.128906 72.515625 11.601562 C 72.445312 11.019531 72.503906 10.597656 72.863281 10.125 C 73.328125 9.609375 73.960938 9.46875 74.625 9.480469 Z M 74.625 9.480469 "/>
<path style=" stroke:none;fill-rule:nonzero;fill:rgb(1.960784%,1.960784%,1.960784%);fill-opacity:1;" d="M 53.902344 9.441406 C 53.902344 9.886719 53.902344 10.332031 53.902344 10.789062 C 53.855469 10.789062 53.808594 10.789062 53.761719 10.789062 C 53.761719 10.765625 53.761719 10.738281 53.761719 10.707031 C 53.742188 10.425781 53.691406 10.289062 53.484375 10.09375 C 53.351562 10.046875 53.261719 10.039062 53.121094 10.035156 C 53.074219 10.035156 53.027344 10.035156 52.980469 10.035156 C 52.933594 10.035156 52.882812 10.03125 52.832031 10.03125 C 52.785156 10.03125 52.734375 10.03125 52.683594 10.027344 C 52.519531 10.027344 52.359375 10.023438 52.199219 10.019531 C 52.089844 10.019531 51.980469 10.015625 51.871094 10.015625 C 51.605469 10.007812 51.339844 10.003906 51.070312 10 C 51.074219 10.789062 51.078125 11.582031 51.082031 12.371094 C 51.085938 12.738281 51.085938 13.105469 51.085938 13.472656 C 51.089844 13.792969 51.089844 14.113281 51.09375 14.433594 C 51.09375 14.601562 51.09375 14.769531 51.09375 14.941406 C 51.09375 15.128906 51.097656 15.316406 51.097656 15.507812 C 51.097656 15.5625 51.097656 15.621094 51.097656 15.675781 C 51.097656 15.730469 51.097656 15.78125 51.101562 15.832031 C 51.101562 15.878906 51.101562 15.921875 51.101562 15.96875 C 51.128906 16.160156 51.207031 16.285156 51.355469 16.40625 C 51.535156 16.484375 51.710938 16.5 51.90625 16.511719 C 51.90625 16.558594 51.90625 16.605469 51.90625 16.652344 C 51.109375 16.652344 50.316406 16.652344 49.496094 16.652344 C 49.496094 16.605469 49.496094 16.558594 49.496094 16.511719 C 49.546875 16.507812 49.546875 16.507812 49.597656 16.5 C 49.910156 16.464844 49.910156 16.464844 50.148438 16.277344 C 50.261719 16.097656 50.289062 16.015625 50.289062 15.804688 C 50.289062 15.753906 50.292969 15.703125 50.292969 15.652344 C 50.292969 15.59375 50.292969 15.539062 50.292969 15.480469 C 50.292969 15.421875 50.292969 15.363281 50.292969 15.300781 C 50.296875 15.140625 50.296875 14.976562 50.296875 14.816406 C 50.296875 14.648438 50.300781 14.476562 50.300781 14.308594 C 50.304688 13.988281 50.304688 13.667969 50.308594 13.347656 C 50.308594 12.980469 50.3125 12.617188 50.316406 12.253906 C 50.320312 11.5 50.324219 10.75 50.328125 10 C 50.003906 10 49.679688 10.003906 49.355469 10.007812 C 49.242188 10.007812 49.132812 10.007812 49.023438 10.007812 C 48.863281 10.007812 48.703125 10.011719 48.542969 10.011719 C 48.496094 10.011719 48.445312 10.011719 48.394531 10.011719 C 48.097656 10.019531 48.097656 10.019531 47.839844 10.160156 C 47.703125 10.308594 47.679688 10.390625 47.660156 10.585938 C 47.65625 10.625 47.652344 10.664062 47.648438 10.703125 C 47.644531 10.730469 47.640625 10.761719 47.640625 10.789062 C 47.59375 10.789062 47.546875 10.789062 47.5 10.789062 C 47.5 10.359375 47.5 9.929688 47.5 9.488281 C 47.582031 9.503906 47.667969 9.519531 47.753906 9.535156 C 48.265625 9.605469 48.78125 9.59375 49.300781 9.59375 C 49.414062 9.59375 49.523438 9.59375 49.632812 9.59375 C 49.867188 9.59375 50.097656 9.59375 50.332031 9.59375 C 50.625 9.59375 50.921875 9.59375 51.21875 9.59375 C 51.449219 9.59375 51.679688 9.59375 51.90625 9.59375 C 52.015625 9.59375 52.125 9.59375 52.234375 9.59375 C 52.386719 9.59375 52.539062 9.59375 52.695312 9.59375 C 52.738281 9.59375 52.78125 9.59375 52.828125 9.59375 C 53.191406 9.589844 53.554688 9.441406 53.902344 9.441406 Z M 53.902344 9.441406 "/>
<path style=" stroke:none;fill-rule:nonzero;fill:rgb(1.960784%,1.960784%,1.960784%);fill-opacity:1;" d="M 61.972656 9.675781 C 62.84375 9.675781 63.71875 9.675781 64.617188 9.675781 C 64.617188 9.707031 64.617188 9.734375 64.617188 9.765625 C 64.582031 9.773438 64.550781 9.777344 64.515625 9.78125 C 64.238281 9.824219 64.042969 9.863281 63.828125 10.046875 C 63.726562 10.199219 63.722656 10.246094 63.722656 10.425781 C 63.722656 10.476562 63.722656 10.523438 63.722656 10.574219 C 63.722656 10.65625 63.722656 10.65625 63.722656 10.738281 C 63.722656 10.796875 63.71875 10.855469 63.71875 10.914062 C 63.71875 11.070312 63.71875 11.226562 63.71875 11.382812 C 63.71875 11.480469 63.71875 11.578125 63.71875 11.679688 C 63.714844 12.019531 63.714844 12.363281 63.714844 12.703125 C 63.714844 13.023438 63.714844 13.34375 63.710938 13.660156 C 63.710938 13.933594 63.710938 14.210938 63.710938 14.484375 C 63.710938 14.648438 63.710938 14.808594 63.707031 14.972656 C 63.707031 15.15625 63.707031 15.339844 63.707031 15.519531 C 63.707031 15.574219 63.707031 15.628906 63.707031 15.683594 C 63.703125 15.996094 63.703125 15.996094 63.847656 16.265625 C 64.03125 16.429688 64.152344 16.476562 64.394531 16.496094 C 64.4375 16.496094 64.480469 16.5 64.523438 16.503906 C 64.570312 16.507812 64.570312 16.507812 64.617188 16.511719 C 64.617188 16.558594 64.617188 16.605469 64.617188 16.652344 C 63.746094 16.652344 62.871094 16.652344 61.972656 16.652344 C 61.972656 16.605469 61.972656 16.558594 61.972656 16.511719 C 62.023438 16.511719 62.023438 16.511719 62.074219 16.507812 C 62.351562 16.492188 62.550781 16.476562 62.761719 16.277344 C 62.9375 16.015625 62.921875 15.753906 62.917969 15.449219 C 62.917969 15.390625 62.917969 15.335938 62.921875 15.28125 C 62.921875 15.128906 62.921875 14.976562 62.921875 14.824219 C 62.921875 14.699219 62.921875 14.574219 62.921875 14.445312 C 62.921875 14.148438 62.921875 13.847656 62.921875 13.550781 C 62.921875 13.242188 62.921875 12.933594 62.921875 12.628906 C 62.921875 12.363281 62.921875 12.097656 62.921875 11.832031 C 62.921875 11.675781 62.921875 11.515625 62.925781 11.359375 C 62.925781 11.183594 62.925781 11.007812 62.921875 10.832031 C 62.925781 10.78125 62.925781 10.726562 62.925781 10.671875 C 62.921875 10.386719 62.90625 10.214844 62.714844 10 C 62.492188 9.828125 62.246094 9.785156 61.972656 9.765625 C 61.972656 9.738281 61.972656 9.707031 61.972656 9.675781 Z M 61.972656 9.675781 "/>
<path style=" stroke:none;fill-rule:nonzero;fill:rgb(1.960784%,1.960784%,1.960784%);fill-opacity:1;" d="M 87.484375 9.675781 C 88.34375 9.675781 89.199219 9.675781 90.082031 9.675781 C 90.082031 9.707031 90.082031 9.734375 90.082031 9.765625 C 90.039062 9.773438 90.039062 9.773438 89.992188 9.78125 C 89.691406 9.832031 89.449219 9.890625 89.265625 10.152344 C 89.195312 10.289062 89.183594 10.371094 89.183594 10.523438 C 89.183594 10.570312 89.183594 10.617188 89.183594 10.667969 C 89.183594 10.746094 89.183594 10.746094 89.183594 10.828125 C 89.183594 10.882812 89.183594 10.9375 89.183594 10.992188 C 89.183594 11.144531 89.183594 11.296875 89.183594 11.449219 C 89.183594 11.609375 89.183594 11.765625 89.183594 11.925781 C 89.183594 12.191406 89.183594 12.457031 89.183594 12.726562 C 89.183594 13.035156 89.183594 13.339844 89.183594 13.648438 C 89.183594 13.914062 89.183594 14.179688 89.183594 14.445312 C 89.183594 14.601562 89.183594 14.761719 89.183594 14.917969 C 89.183594 15.09375 89.183594 15.269531 89.183594 15.445312 C 89.183594 15.5 89.183594 15.550781 89.183594 15.605469 C 89.183594 15.863281 89.1875 16.058594 89.339844 16.277344 C 89.59375 16.46875 89.820312 16.5 90.128906 16.511719 C 90.128906 16.558594 90.128906 16.605469 90.128906 16.652344 C 89.257812 16.652344 88.382812 16.652344 87.484375 16.652344 C 87.484375 16.605469 87.484375 16.558594 87.484375 16.511719 C 87.523438 16.507812 87.558594 16.503906 87.597656 16.5 C 87.910156 16.457031 88.105469 16.421875 88.320312 16.1875 C 88.378906 16.070312 88.375 15.988281 88.375 15.859375 C 88.375 15.808594 88.375 15.761719 88.375 15.710938 C 88.375 15.65625 88.375 15.601562 88.375 15.542969 C 88.375 15.488281 88.375 15.429688 88.375 15.371094 C 88.378906 15.179688 88.378906 14.988281 88.378906 14.800781 C 88.378906 14.734375 88.378906 14.667969 88.378906 14.605469 C 88.382812 14.332031 88.382812 14.058594 88.382812 13.785156 C 88.382812 13.398438 88.386719 13.007812 88.386719 12.617188 C 88.390625 12.34375 88.390625 12.066406 88.390625 11.792969 C 88.390625 11.628906 88.390625 11.464844 88.394531 11.300781 C 88.394531 11.117188 88.394531 10.9375 88.394531 10.753906 C 88.394531 10.699219 88.394531 10.644531 88.394531 10.589844 C 88.398438 10.292969 88.398438 10.292969 88.257812 10.039062 C 88.011719 9.867188 87.78125 9.796875 87.484375 9.765625 C 87.484375 9.738281 87.484375 9.707031 87.484375 9.675781 Z M 87.484375 9.675781 "/>
<path style=" stroke:none;fill-rule:nonzero;fill:rgb(97.254902%,97.254902%,97.254902%);fill-opacity:1;" d="M 82.894531 10.789062 C 82.921875 10.789062 82.953125 10.789062 82.984375 10.789062 C 83.152344 11.199219 83.320312 11.609375 83.488281 12.019531 C 83.515625 12.085938 83.515625 12.085938 83.542969 12.15625 C 83.578125 12.246094 83.617188 12.335938 83.652344 12.425781 C 83.75 12.660156 83.84375 12.894531 83.941406 13.128906 C 83.960938 13.175781 83.980469 13.222656 84 13.273438 C 84.039062 13.363281 84.074219 13.453125 84.113281 13.542969 C 84.128906 13.585938 84.144531 13.625 84.164062 13.664062 C 84.183594 13.71875 84.183594 13.71875 84.207031 13.773438 C 84.238281 13.859375 84.238281 13.859375 84.238281 13.953125 C 83.367188 13.953125 82.492188 13.953125 81.59375 13.953125 C 81.75 13.484375 81.75 13.484375 81.824219 13.304688 C 81.851562 13.246094 81.851562 13.246094 81.875 13.183594 C 81.894531 13.144531 81.910156 13.101562 81.929688 13.058594 C 81.957031 12.992188 81.957031 12.992188 81.988281 12.925781 C 82.046875 12.785156 82.105469 12.644531 82.164062 12.503906 C 82.203125 12.410156 82.246094 12.316406 82.285156 12.222656 C 82.484375 11.746094 82.6875 11.265625 82.894531 10.789062 Z M 82.894531 10.789062 "/>
<path style=" stroke:none;fill-rule:nonzero;fill:rgb(97.254902%,97.254902%,97.254902%);fill-opacity:1;" d="M 34.328125 10.789062 C 34.355469 10.789062 34.386719 10.789062 34.417969 10.789062 C 34.585938 11.199219 34.753906 11.609375 34.921875 12.019531 C 34.949219 12.085938 34.949219 12.085938 34.976562 12.15625 C 35.011719 12.246094 35.050781 12.335938 35.085938 12.425781 C 35.179688 12.660156 35.277344 12.894531 35.375 13.128906 C 35.394531 13.175781 35.414062 13.222656 35.433594 13.273438 C 35.472656 13.363281 35.507812 13.453125 35.546875 13.542969 C 35.5625 13.585938 35.578125 13.625 35.59375 13.664062 C 35.617188 13.71875 35.617188 13.71875 35.640625 13.773438 C 35.671875 13.859375 35.671875 13.859375 35.671875 13.953125 C 34.800781 13.953125 33.925781 13.953125 33.027344 13.953125 C 33.183594 13.484375 33.183594 13.484375 33.257812 13.304688 C 33.285156 13.246094 33.285156 13.246094 33.308594 13.183594 C 33.328125 13.144531 33.34375 13.101562 33.363281 13.058594 C 33.390625 12.992188 33.390625 12.992188 33.417969 12.925781 C 33.480469 12.785156 33.539062 12.644531 33.597656 12.503906 C 33.636719 12.410156 33.675781 12.316406 33.71875 12.222656 C 33.917969 11.746094 34.121094 11.265625 34.328125 10.789062 Z M 34.328125 10.789062 "/>
<path style=" stroke:none;fill-rule:nonzero;fill:rgb(97.254902%,97.254902%,97.254902%);fill-opacity:1;" d="M 9.601562 17.117188 C 9.734375 17.179688 9.84375 17.25 9.957031 17.34375 C 10.675781 17.886719 11.574219 17.878906 12.425781 17.769531 C 13.066406 17.675781 13.660156 17.480469 14.265625 17.25 C 14.367188 17.214844 14.460938 17.1875 14.566406 17.164062 C 14.667969 17.410156 14.699219 17.644531 14.65625 17.90625 C 14.5625 18.140625 14.414062 18.339844 14.195312 18.464844 C 13.148438 18.878906 11.886719 18.503906 10.902344 18.09375 C 10.632812 17.972656 10.363281 17.847656 10.097656 17.722656 C 10.046875 17.699219 10 17.675781 9.949219 17.648438 C 9.90625 17.628906 9.863281 17.609375 9.816406 17.585938 C 9.699219 17.535156 9.589844 17.507812 9.460938 17.488281 C 9.496094 17.222656 9.496094 17.222656 9.601562 17.117188 Z M 9.601562 17.117188 "/>
<path style=" stroke:none;fill-rule:nonzero;fill:rgb(98.039216%,98.039216%,98.039216%);fill-opacity:1;" d="M 11.6875 11.070312 C 11.992188 11.109375 12.265625 11.21875 12.476562 11.441406 C 12.5625 11.710938 12.539062 12 12.523438 12.277344 C 12.421875 12.351562 12.320312 12.421875 12.21875 12.496094 C 12.1875 12.515625 12.160156 12.535156 12.128906 12.558594 C 11.914062 12.703125 11.914062 12.703125 11.730469 12.671875 C 11.6875 12.652344 11.640625 12.628906 11.597656 12.605469 C 11.550781 12.582031 11.503906 12.558594 11.457031 12.535156 C 11.414062 12.507812 11.371094 12.484375 11.324219 12.460938 C 11.28125 12.433594 11.234375 12.410156 11.1875 12.382812 C 11.15625 12.363281 11.121094 12.34375 11.085938 12.324219 C 11.019531 11.742188 11.019531 11.742188 11.085938 11.488281 C 11.246094 11.308594 11.425781 11.214844 11.644531 11.117188 C 11.660156 11.101562 11.671875 11.085938 11.6875 11.070312 Z M 11.6875 11.070312 "/>
<path style=" stroke:none;fill-rule:nonzero;fill:rgb(1.568628%,1.568628%,1.568628%);fill-opacity:1;" d="M 78.347656 15.675781 C 78.496094 15.769531 78.558594 15.835938 78.609375 16.007812 C 78.636719 16.179688 78.636719 16.296875 78.574219 16.460938 C 78.425781 16.625 78.316406 16.6875 78.09375 16.722656 C 77.875 16.691406 77.804688 16.621094 77.652344 16.464844 C 77.570312 16.304688 77.582031 16.128906 77.605469 15.953125 C 77.792969 15.648438 78.007812 15.628906 78.347656 15.675781 Z M 78.347656 15.675781 "/>
<path style=" stroke:none;fill-rule:nonzero;fill:rgb(9.411765%,9.411765%,9.411765%);fill-opacity:1;" d="M 15.773438 16.371094 C 15.800781 16.386719 15.832031 16.402344 15.863281 16.417969 C 15.816406 16.558594 15.816406 16.558594 15.707031 16.617188 C 15.585938 16.652344 15.585938 16.652344 15.445312 16.605469 C 15.554688 16.527344 15.660156 16.449219 15.773438 16.371094 Z M 15.773438 16.371094 "/>
</g>
</svg>
